<svg width="14" height="7" viewBox="0 0 14 7" fill="none" xmlns="http://www.w3.org/2000/svg">
<path d="M13.5655 5.27499C13.5048 5.30959 13.4379 5.33188 13.3686 5.3406C13.2993 5.34931 13.229 5.34427 13.1616 5.32576C13.0943 5.30726 13.0312 5.27566 12.9761 5.23276C12.921 5.18986 12.8748 5.13651 12.8404 5.07577L11.5786 2.87108C10.8451 3.36705 10.0359 3.74069 9.18271 3.97741L9.57251 6.31623C9.58401 6.38509 9.58183 6.45553 9.56609 6.52354C9.55035 6.59155 9.52137 6.65579 9.48079 6.71259C9.4402 6.76939 9.38883 6.81764 9.32959 6.85457C9.27036 6.8915 9.20442 6.9164 9.13556 6.92784C9.10723 6.93247 9.07859 6.93491 9.04989 6.93514C8.92422 6.93495 8.80267 6.89021 8.70687 6.80887C8.61106 6.72754 8.54719 6.61487 8.52661 6.49088L8.14345 4.19456C7.33541 4.307 6.5157 4.307 5.70767 4.19456L5.3245 6.49088C5.30389 6.61509 5.23982 6.72794 5.14374 6.8093C5.04766 6.89067 4.9258 6.93527 4.79989 6.93514C4.77053 6.93502 4.74122 6.93258 4.71224 6.92784C4.64337 6.9164 4.57744 6.8915 4.5182 6.85457C4.45897 6.81764 4.40759 6.76939 4.36701 6.71259C4.32643 6.65579 4.29744 6.59155 4.2817 6.52354C4.26596 6.45553 4.26378 6.38509 4.27528 6.31623L4.66708 3.97741C3.81418 3.73994 3.00546 3.36563 2.27247 2.86909L1.01474 5.07577C0.979854 5.13655 0.933341 5.18987 0.877854 5.23267C0.822366 5.27548 0.758991 5.30694 0.691345 5.32525C0.6237 5.34357 0.55311 5.34838 0.483605 5.33941C0.414101 5.33044 0.347043 5.30788 0.28626 5.27299C0.225478 5.23811 0.172161 5.1916 0.129354 5.13611C0.0865473 5.08062 0.0550886 5.01725 0.0367745 4.9496C0.0184603 4.88196 0.0136491 4.81137 0.0226158 4.74186C0.0315824 4.67236 0.0541512 4.6053 0.0890336 4.54452L1.41716 2.2203C0.950654 1.81726 0.521682 1.37273 0.135518 0.892173C0.0873594 0.838403 0.0506639 0.775382 0.0276713 0.706958C0.00467871 0.638535 -0.00412863 0.566143 0.00178708 0.494202C0.00770279 0.422261 0.0282174 0.352281 0.0620786 0.288532C0.0959397 0.224783 0.142437 0.168604 0.198732 0.123423C0.255028 0.0782419 0.31994 0.0450076 0.389507 0.0257483C0.459074 0.00648891 0.531836 0.00160849 0.603352 0.0114053C0.674867 0.0212021 0.743637 0.0454706 0.805461 0.082729C0.867286 0.119987 0.920869 0.169454 0.96294 0.22811C2.06528 1.59209 3.99372 3.21639 6.92489 3.21639C9.85606 3.21639 11.7845 1.5901 12.8868 0.22811C12.9284 0.168254 12.9819 0.117596 13.0439 0.0792884C13.1059 0.040981 13.1751 0.0158433 13.2473 0.00543962C13.3194 -0.0049641 13.3929 -0.000411419 13.4632 0.0188144C13.5336 0.0380402 13.5992 0.0715281 13.656 0.117194C13.7128 0.16286 13.7596 0.219728 13.7935 0.284259C13.8273 0.34879 13.8476 0.419604 13.8529 0.492295C13.8583 0.564987 13.8486 0.638 13.8245 0.706794C13.8004 0.775587 13.7625 0.838689 13.7129 0.892173C13.3268 1.37273 12.8978 1.81726 12.4313 2.2203L13.7594 4.54452C13.7951 4.6051 13.8184 4.67216 13.8279 4.74181C13.8374 4.81146 13.8331 4.88231 13.815 4.95025C13.797 5.01819 13.7657 5.08188 13.7228 5.13763C13.68 5.19337 13.6265 5.24006 13.5655 5.27499Z" fill="white"/>
</svg>
