<svg width="18" height="12" viewBox="0 0 18 12" fill="none" xmlns="http://www.w3.org/2000/svg">
<path d="M17.2603 5.82914C17.2364 5.7743 16.6514 4.47703 15.345 3.17063C14.1328 1.95984 12.0502 0.515625 9.00002 0.515625C5.94986 0.515625 3.86721 1.95984 2.65502 3.17063C1.34861 4.47703 0.763613 5.77219 0.739707 5.82914C0.715669 5.88314 0.703247 5.94159 0.703247 6.0007C0.703247 6.05981 0.715669 6.11826 0.739707 6.17227C0.763613 6.22641 1.34861 7.52367 2.65502 8.83008C3.86721 10.0409 5.94986 11.4844 9.00002 11.4844C12.0502 11.4844 14.1328 10.0409 15.345 8.83008C16.6514 7.52367 17.2364 6.22852 17.2603 6.17227C17.2844 6.11826 17.2968 6.05981 17.2968 6.0007C17.2968 5.94159 17.2844 5.88314 17.2603 5.82914ZM9.00002 10.6406C6.79361 10.6406 4.86705 9.83766 3.27307 8.25492C2.60487 7.59085 2.03943 6.83085 1.59541 6C2.03931 5.16928 2.60476 4.40949 3.27307 3.74578C4.86705 2.16234 6.79361 1.35938 9.00002 1.35938C11.2064 1.35938 13.133 2.16234 14.727 3.74578C15.3953 4.40949 15.9607 5.16928 16.4046 6C15.9567 6.85852 13.711 10.6406 9.00002 10.6406ZM9.00002 2.76562C8.36032 2.76562 7.73499 2.95532 7.2031 3.31072C6.67121 3.66611 6.25665 4.17125 6.01185 4.76226C5.76704 5.35326 5.70299 6.00359 5.82779 6.63099C5.95259 7.2584 6.26064 7.83471 6.71297 8.28705C7.16531 8.73938 7.74162 9.04743 8.36902 9.17223C8.99643 9.29703 9.64676 9.23298 10.2378 8.98817C10.8288 8.74337 11.3339 8.32881 11.6893 7.79692C12.0447 7.26503 12.2344 6.6397 12.2344 6C12.2333 5.14253 11.8922 4.32051 11.2858 3.71418C10.6795 3.10786 9.85749 2.76674 9.00002 2.76562ZM9.00002 8.39062C8.5272 8.39062 8.065 8.25042 7.67186 7.98773C7.27872 7.72505 6.97231 7.35168 6.79137 6.91485C6.61043 6.47802 6.56309 5.99735 6.65533 5.53361C6.74757 5.06988 6.97526 4.64391 7.30959 4.30957C7.64393 3.97524 8.0699 3.74755 8.53363 3.65531C8.99737 3.56307 9.47804 3.61041 9.91487 3.79135C10.3517 3.97229 10.7251 4.2787 10.9878 4.67184C11.2504 5.06498 11.3906 5.52718 11.3906 6C11.3906 6.63403 11.1388 7.2421 10.6904 7.69043C10.2421 8.13876 9.63405 8.39062 9.00002 8.39062Z" fill="white"/>
</svg>
